<svg width="300" height="145" viewBox="0 0 300 145" fill="none" xmlns="http://www.w3.org/2000/svg">
<path fill-rule="evenodd" clip-rule="evenodd" d="M112.144 126.222C112.262 123.862 110.845 119.848 109.783 114.774C108.722 109.699 108.012 103.561 107.54 98.1329C107.069 92.7041 106.832 87.983 107.304 83.1447C107.776 78.3065 108.958 73.3479 110.491 68.9824C112.025 64.616 113.915 60.8378 116.038 57.0621C118.162 53.2856 120.523 49.5074 123.591 45.7317C126.66 41.9552 130.437 38.1786 134.567 34.9928C138.697 31.8061 143.183 29.2084 147.668 26.8482C152.152 24.4881 156.638 22.3639 159.924 20.9541C163.211 19.5443 165.3 18.848 162.827 18.3704C160.354 17.892 153.32 17.6313 145.994 17.661C138.668 17.6907 131.049 18.0116 123.035 18.9767C115.021 19.9419 106.611 21.553 98.3994 23.6046C90.1873 25.6562 82.1722 28.1491 75.0795 30.8343C67.9867 33.5194 61.8129 36.3976 56.4863 39.3112C51.1589 42.2265 46.6754 45.1782 42.2909 49.0636C37.9048 52.9498 33.6143 57.7723 28.5987 63.3093C23.5832 68.8462 17.84 75.1 14.1954 79.3707C10.5517 83.6414 9.00497 85.9305 8.58593 87.7825C8.16686 89.6345 8.8763 91.0517 11.2356 93.8837C13.5957 96.7165 17.6098 100.965 22.0934 105.214C26.5777 109.462 31.5363 113.711 38.1449 117.369C44.7542 121.029 53.0151 124.097 61.2759 125.985C69.5376 127.873 77.8001 128.583 85.7071 129.055C93.6141 129.526 101.167 129.762 105.77 129.526C110.373 129.291 112.026 128.582 112.144 126.222L112.144 126.222Z" fill="url(#paint0_radial)"/>
<path fill-rule="evenodd" clip-rule="evenodd" d="M297.231 114.888C298.279 111.861 299.21 106.971 299.675 100.919C300.141 94.8662 300.141 87.648 299.443 80.7805C298.745 73.9129 297.347 67.3935 295.136 61.5736C292.924 55.7529 289.897 50.6309 286.056 45.6261C282.215 40.6204 277.558 35.7302 271.389 31.1906C265.22 26.651 257.536 22.4603 249.621 18.9684C241.706 15.4765 233.556 12.6816 225.292 10.5871C217.027 8.49181 208.646 7.09438 200.148 5.8141C191.651 4.53381 183.036 3.36983 175.353 2.55563C167.671 1.7406 160.919 1.27451 156.612 1.39082C152.305 1.50714 150.442 2.20668 154.516 3.25352C158.59 4.30118 168.602 5.69861 178.264 7.90942C187.925 10.1211 197.238 13.1486 207.061 17.3483C216.885 21.5488 227.222 26.9249 235.602 31.8134C243.983 36.702 250.411 41.1063 256.069 47.2652C261.727 53.4242 266.617 61.341 271.389 69.4889C276.161 77.6375 280.818 86.0188 284.543 94.5164C288.267 103.014 291.062 111.629 293.04 115.353C295.019 119.079 296.183 117.914 297.231 114.888L297.231 114.888Z" fill="url(#paint1_linear)"/>
<path fill-rule="evenodd" clip-rule="evenodd" d="M283.701 126.615C287.077 125.878 292.897 123.422 295.807 121.459C298.717 119.494 298.717 118.02 295.342 109.917C291.966 101.813 285.214 87.0783 278.055 74.9238C270.897 62.7685 263.329 53.1902 253.668 44.5961C244.006 36.0011 232.249 28.3887 220.085 22.0045C207.921 15.6195 195.349 10.4621 183.708 6.90249C172.067 3.34127 161.357 1.37629 152.162 0.517514C142.966 -0.342889 135.282 -0.0970596 125.854 1.00752C116.425 2.11293 105.249 4.07792 93.7691 7.29018C82.2886 10.5033 70.5028 14.9645 61.2207 19.0166C51.9377 23.0695 45.1568 26.714 36.8489 32.8325C28.5402 38.951 18.7021 47.5443 12.0375 54.4193C5.37287 61.2934 1.88012 66.4517 0.599836 70.0113C-0.681282 73.5717 0.250891 75.5375 1.88013 78.8521C3.50936 82.1666 5.83816 86.8333 7.35107 88.9203C8.86399 91.0082 9.56354 90.5166 11.658 87.4478C13.7534 84.3774 17.2461 78.7291 21.6991 72.4761C26.1521 66.2231 31.5677 59.3647 37.9692 53.5943C44.3715 47.8231 51.7629 43.14 60.3463 38.7117C68.9305 34.2827 78.7093 30.1069 88.6035 27.0382C98.4977 23.9686 108.509 22.0036 118.171 20.7761C127.832 19.5486 137.145 19.057 145.933 19.2813C154.722 19.5065 162.987 20.4486 172.882 23.2724C182.776 26.0961 194.301 30.8032 204.137 35.6117C213.973 40.4202 222.123 45.3335 229.223 50.6122C236.323 55.8918 242.377 61.5401 247.615 67.8013C252.853 74.0633 257.277 80.94 261.467 88.1837C265.658 95.4274 269.616 103.041 272.41 109.302C275.203 115.564 276.834 120.476 278.114 123.422C279.394 126.369 280.326 127.352 283.701 126.615L283.701 126.615Z" fill="url(#paint2_radial)"/>
<path d="M184.873 144.019C213.418 144.019 236.558 120.879 236.558 92.3343C236.558 63.7894 213.418 40.6492 184.873 40.6492C156.328 40.6492 133.188 63.7894 133.188 92.3343C133.188 120.879 156.328 144.019 184.873 144.019Z" fill="url(#paint3_radial)"/>
<defs>
<radialGradient id="paint0_radial" cx="0" cy="0" r="1" gradientUnits="userSpaceOnUse" gradientTransform="translate(120.389 28.8545) scale(77.72)">
<stop stop-color="#201E1E"/>
<stop offset="0.478431" stop-color="#394255"/>
<stop offset="1" stop-color="#52658C"/>
</radialGradient>
<linearGradient id="paint1_linear" x1="173.807" y1="117.215" x2="278.443" y2="1.84536" gradientUnits="userSpaceOnUse">
<stop stop-color="#52658C"/>
<stop offset="0.768627" stop-color="#A8B1C5"/>
<stop offset="1" stop-color="#FEFEFE"/>
</linearGradient>
<radialGradient id="paint2_radial" cx="0" cy="0" r="1" gradientUnits="userSpaceOnUse" gradientTransform="translate(148.967 63.4242) scale(137.051)">
<stop stop-color="#BDBFC1"/>
<stop offset="0.14902" stop-color="#8792A6"/>
<stop offset="1" stop-color="#52658C"/>
</radialGradient>
<radialGradient id="paint3_radial" cx="0" cy="0" r="1" gradientUnits="userSpaceOnUse" gradientTransform="translate(160.065 123.345) scale(40.8587)">
<stop stop-color="#FEFEFE"/>
<stop offset="0.321569" stop-color="#A8B1C5"/>
<stop offset="1" stop-color="#52658C"/>
</radialGradient>
</defs>
</svg>
