<?xml version="1.0" encoding="UTF-8"?>
<!DOCTYPE svg PUBLIC "-//W3C//DTD SVG 1.1//EN" "http://www.w3.org/Graphics/SVG/1.1/DTD/svg11.dtd">
<!-- Creator: CorelDRAW X5 -->
<svg xmlns="http://www.w3.org/2000/svg" xml:space="preserve" width="36.3667mm" height="27.4255mm" style="shape-rendering:geometricPrecision; text-rendering:geometricPrecision; image-rendering:optimizeQuality; fill-rule:evenodd; clip-rule:evenodd"
viewBox="0 0 8.01898 6.04742"
 xmlns:xlink="http://www.w3.org/1999/xlink">
 <defs>
  <style type="text/css">
   <![CDATA[
    .str0 {stroke:#52658C;stroke-width:0.0441007}
    .fil7 {fill:#FEFEFE}
    .fil4 {fill:url(#id0)}
    .fil5 {fill:url(#id1)}
    .fil6 {fill:url(#id2)}
    .fil1 {fill:url(#id3)}
    .fil3 {fill:url(#id4)}
    .fil0 {fill:url(#id5)}
    .fil2 {fill:url(#id6)}
   ]]>
  </style>
  <linearGradient id="id0" gradientUnits="userSpaceOnUse" x1="4.77591" y1="6.23041" x2="4.90362" y2="4.05916">
   <stop offset="0" style="stop-color:#718FC8"/>
   <stop offset="0.811765" style="stop-color:#B7C6E3"/>
   <stop offset="1" style="stop-color:#FEFEFE"/>
  </linearGradient>
  <linearGradient id="id1" gradientUnits="userSpaceOnUse" xlink:href="#id0" x1="2.67554" y1="6.01727" x2="2.77627" y2="4.30498">
  </linearGradient>
  <linearGradient id="id2" gradientUnits="userSpaceOnUse" xlink:href="#id0" x1="6.87135" y1="6.00978" x2="6.97208" y2="4.29748">
  </linearGradient>
  <linearGradient id="id3" gradientUnits="userSpaceOnUse" x1="4.64585" y1="3.13315" x2="7.44276" y2="0.0493266">
   <stop offset="0" style="stop-color:#52658C"/>
   <stop offset="0.768627" style="stop-color:#A8B1C5"/>
   <stop offset="1" style="stop-color:#FEFEFE"/>
  </linearGradient>
  <radialGradient id="id4" gradientUnits="userSpaceOnUse" cx="4.27852" cy="3.29701" r="1.09215" fx="4.27852" fy="3.29701">
   <stop offset="0" style="stop-color:#FEFEFE"/>
   <stop offset="0.321569" style="stop-color:#A8B1C5"/>
   <stop offset="1" style="stop-color:#52658C"/>
  </radialGradient>
  <radialGradient id="id5" gradientUnits="userSpaceOnUse" cx="3.21798" cy="0.771277" r="2.07745" fx="3.21798" fy="0.771277">
   <stop offset="0" style="stop-color:#201E1E"/>
   <stop offset="0.478431" style="stop-color:#394255"/>
   <stop offset="1" style="stop-color:#52658C"/>
  </radialGradient>
  <radialGradient id="id6" gradientUnits="userSpaceOnUse" cx="3.98189" cy="1.69534" r="3.66336" fx="3.98189" fy="1.69534">
   <stop offset="0" style="stop-color:#BDBFC1"/>
   <stop offset="0.14902" style="stop-color:#8792A6"/>
   <stop offset="1" style="stop-color:#52658C"/>
  </radialGradient>
 </defs>
 <g id="Camada_x0020_1">
  <metadata id="CorelCorpID_0Corel-Layer"/>
  <g id="_372004528">
   <path id="_372613072" class="fil0" d="M2.99759 3.3739c0.0031532,-0.063086 -0.0347072,-0.170361 -0.063086,-0.305993 -0.0283788,-0.135654 -0.0473421,-0.29973 -0.0599549,-0.444822 -0.0126128,-0.145113 -0.0189412,-0.271307 -0.00632845,-0.400633 0.0126348,-0.129325 0.0442109,-0.26187 0.0852025,-0.37856 0.0409916,-0.116712 0.0915089,-0.217703 0.148266,-0.318627 0.0567796,-0.100946 0.119888,-0.201937 0.201893,-0.302861 0.0820273,-0.100946 0.182996,-0.201893 0.29338,-0.287051 0.110406,-0.0851805 0.230316,-0.154617 0.350181,-0.217703 0.119866,-0.063086 0.239775,-0.119866 0.327602,-0.15755 0.0878706,-0.037684 0.143702,-0.0562945 0.0776172,-0.0690617 -0.0661069,-0.0127892 -0.25413,-0.0197571 -0.449959,-0.0189633 -0.195807,0.000793812 -0.399464,0.00937139 -0.613683,0.0351703 -0.214219,0.0257989 -0.439022,0.0688632 -0.658511,0.123702 -0.219511,0.0548392 -0.433752,0.121475 -0.623341,0.193249 -0.189589,0.0717739 -0.354614,0.148707 -0.496993,0.226589 -0.142401,0.0779259 -0.262245,0.156822 -0.379442,0.260679 -0.117242,0.103879 -0.231925,0.232785 -0.365992,0.380787 -0.134066,0.148002 -0.287581,0.315166 -0.384999,0.42932 -0.0973964,0.114155 -0.138741,0.175344 -0.149942,0.224847 -0.0112016,0.049503 0.00776172,0.0873855 0.0708257,0.163084 0.063086,0.0757209 0.170383,0.18928 0.290227,0.302861 0.119866,0.113559 0.25241,0.227119 0.429056,0.324912 0.176667,0.0978153 0.397479,0.179821 0.618292,0.230294 0.220834,0.0504732 0.44169,0.0694365 0.653043,0.0820493 0.211353,0.0125907 0.413245,0.0189192 0.536286,0.0126128 0.123019,-0.00628435 0.167208,-0.0252476 0.170361,-0.0883337z"/>
   <path id="_372613024" class="fil1" d="M7.94496 3.07095c0.0280039,-0.0809027 0.0528988,-0.211617 0.0653352,-0.3734 0.0124584,-0.161783 0.0124584,-0.354724 -0.00619615,-0.538293 -0.0186766,-0.183569 -0.0560299,-0.357833 -0.115147,-0.513398 -0.059117,-0.155587 -0.14002,-0.292498 -0.242686,-0.426277 -0.102688,-0.133801 -0.227163,-0.264516 -0.392055,-0.385859 -0.164914,-0.121343 -0.370291,-0.233359 -0.581864,-0.326698 -0.211573,-0.0933391 -0.429408,-0.168046 -0.650309,-0.224031 -0.220922,-0.0560079 -0.444954,-0.0933611 -0.672094,-0.127583 -0.227141,-0.0342221 -0.457412,-0.0653352 -0.662767,-0.0870988 -0.205355,-0.0217857 -0.385837,-0.0342442 -0.500962,-0.0311351 -0.115125,0.0031091 -0.164914,0.0218078 -0.0560299,0.0497897 0.108907,0.0280039 0.376532,0.0653572 0.634785,0.124452 0.258254,0.059117 0.50718,0.140042 0.769755,0.2523 0.262598,0.11228 0.538888,0.255982 0.762898,0.386653 0.224031,0.13067 0.395848,0.248397 0.547069,0.413025 0.151243,0.164628 0.281958,0.376245 0.409519,0.594036 0.127561,0.217813 0.252035,0.441845 0.351593,0.668985 0.0995573,0.227141 0.174264,0.457412 0.227141,0.55697 0.0528988,0.0995793 0.0840118,0.0684443 0.112016,-0.0124364z"/>
   <path id="_372612856" class="fil2" d="M7.58333 3.38442c0.09023,-0.019691 0.245817,-0.0853348 0.323589,-0.137815 0.0777936,-0.0525239 0.0777936,-0.0919279 -0.0124364,-0.308528 -0.09023,-0.2166 -0.270712,-0.610464 -0.462065,-0.935353 -0.191353,-0.324912 -0.393621,-0.580938 -0.651874,-0.810659 -0.258254,-0.229742 -0.572515,-0.433223 -0.897669,-0.603871 -0.325154,-0.17067 -0.661202,-0.308528 -0.972354,-0.403676 -0.311152,-0.0951913 -0.597432,-0.147715 -0.843227,-0.17067 -0.245817,-0.0229985 -0.451194,-0.0164275 -0.703207,0.0130979 -0.252035,0.0295475 -0.550773,0.0820714 -0.857626,0.167935 -0.306875,0.0858861 -0.621908,0.205134 -0.870018,0.313446 -0.248132,0.108333 -0.429386,0.205752 -0.651455,0.369299 -0.222091,0.163547 -0.485063,0.393246 -0.663208,0.577013 -0.178145,0.183745 -0.271506,0.321626 -0.305728,0.416773 -0.0342442,0.0951693 -0.00932729,0.147715 0.0342221,0.236313 0.0435494,0.0885983 0.105798,0.213337 0.146238,0.269124 0.0404403,0.0558094 0.059139,0.0426674 0.115125,-0.0393599 0.0560079,-0.0820714 0.149369,-0.23305 0.268397,-0.400192 0.119028,-0.167142 0.263788,-0.350468 0.434899,-0.50471 0.171133,-0.154264 0.368704,-0.279444 0.598138,-0.39781 0.229456,-0.118388 0.490841,-0.230007 0.755312,-0.312034 0.264472,-0.0820493 0.532075,-0.134573 0.790328,-0.167384 0.258254,-0.0328109 0.50718,-0.0459529 0.742082,-0.0399552 0.234924,0.00601974 0.455869,0.0312012 0.720341,0.10668 0.264472,0.0754783 0.572537,0.201298 0.835443,0.329829 0.262928,0.128531 0.480764,0.259863 0.670551,0.400963 0.189787,0.141122 0.351615,0.292101 0.491612,0.459463 0.14002,0.167384 0.258276,0.351196 0.370269,0.54482 0.112016,0.193624 0.217835,0.397127 0.292498,0.564489 0.0746625,0.167384 0.118256,0.298694 0.152478,0.377436 0.0342221,0.0787638 0.059117,0.105048 0.149347,0.0853348z"/>
   <circle id="_372613336" class="fil3" cx="4.94164" cy="2.46809" r="1.38154"/>
  </g>
  <path class="fil4 str0" d="M4.8989 5.99423c0.124452,0 0.280039,0 0.395142,0 0.115125,0 0.189831,0 0.252057,-0.0062182 0.0622261,-0.0062182 0.112016,-0.0186766 0.152456,-0.0342221 0.0404624,-0.0155455 0.0715754,-0.0342442 0.0995793,-0.059117 0.0280039,-0.0248948 0.0528988,-0.0560079 0.0684443,-0.0808806 0.0155675,-0.0248948 0.0217857,-0.0435935 0.0280039,-0.0715754 0.0062182,-0.0280039 0.0124584,-0.0653572 0.0155675,-0.211595 0.0031091,-0.146238 0.0031091,-0.401404 0.0031091,-0.591192 0,-0.189809 0,-0.314283 -0.00932729,-0.388946 -0.00932729,-0.0746845 -0.028026,-0.0995793 -0.059117,-0.130692 -0.031113,-0.031113 -0.0747066,-0.0684663 -0.118256,-0.09023 -0.0435494,-0.0217857 -0.0871209,-0.0280039 -0.236468,-0.031113 -0.149347,-0.0031091 -0.404513,-0.0031091 -0.631654,-0.0031091 -0.227141,0 -0.426277,0 -0.560057,0 -0.133801,0 -0.202268,0 -0.252035,0.0062182 -0.0497897,0.0062182 -0.0809247,0.0186766 -0.112038,0.0404403 -0.031113,0.0217857 -0.0622261,0.0528988 -0.0870988,0.0809027 -0.0248948,0.0280039 -0.0435935,0.0528988 -0.0560299,0.108907 -0.0124364,0.0560079 -0.0186766,0.143129 -0.0217857,0.286258 -0.0031091,0.143129 -0.0031091,0.342287 -0.0031091,0.50718 0,0.164914 0,0.295629 0.00932729,0.382728 0.00932729,0.0871209 0.028026,0.130692 0.0622481,0.168024 0.0342221,0.0373312 0.0840118,0.0684663 0.127561,0.0871209 0.0435715,0.0186766 0.0809247,0.0248948 0.183591,0.0280039 0.102688,0.0031091 0.270712,0.0031091 0.401382,0.0031091 0.130692,0 0.224054,0 0.348506,0z"/>
  <path class="fil5 str0" d="M3.53915 5.96001c0.00932729,-0.0404403 0.0155675,-0.115147 0.0155675,-0.152478 0,-0.0373312 -0.00624025,-0.0373312 -0.0280039,-0.031113 -0.0217857,0.0062182 -0.059139,0.0186987 -0.0964702,0.0249169 -0.0373312,0.0062182 -0.0746845,0.0062182 -0.146238,0.0062182 -0.0715534,0 -0.177373,0 -0.311152,0 -0.133779,0 -0.295607,0 -0.382706,-0.0062182 -0.0871209,-0.0062182 -0.0996014,-0.0186987 -0.10582,-0.0373533 -0.0062182,-0.0186546 -0.0062182,-0.0435715 -0.0062182,-0.174242 0,-0.13067 0,-0.367182 0,-0.550751 0,-0.183569 0,-0.314283 0,-0.382728 0,-0.0684443 0,-0.0746625 0.00932729,-0.0839897 0.00932729,-0.00932729 0.028026,-0.0218078 0.0466806,-0.0311351 0.0186546,-0.00932729 0.0373533,-0.0155455 0.0995793,-0.0186546 0.0622261,-0.0031091 0.168024,-0.0031091 0.304934,0 0.136911,0.0031091 0.304934,0.00932729 0.41071,0.0155455 0.105798,0.0062182 0.149369,0.0124584 0.177351,0.0186766 0.0280039,0.0062182 0.0404844,0.0124584 0.0435935,-0.0124364 0.0031091,-0.0248948 -0.00313115,-0.0809027 -0.00624025,-0.127561 -0.0031091,-0.0466806 -0.0031091,-0.0840338 -0.0062182,-0.102688 -0.0031091,-0.0186766 -0.00934934,-0.0186766 -0.23649,-0.0155675 -0.227141,0.0031091 -0.675203,0.00932729 -0.908562,0.0155455 -0.233359,0.0062182 -0.252057,0.0124584 -0.280039,0.0248948 -0.0280039,0.0124364 -0.0653572,0.0311351 -0.102688,0.0528988 -0.0373312,0.0217857 -0.0746845,0.0466806 -0.0995573,0.0684443 -0.0248948,0.0217857 -0.0373533,0.0404844 -0.0435715,0.0684663 -0.0062182,0.0280039 -0.0062182,0.0653572 -0.0062182,0.112016 0,0.0466806 0,0.102688 0,0.189809 0,0.0871209 0,0.205355 0,0.326698 0,0.121343 0,0.245839 0,0.354724 0,0.108907 0,0.202268 0.0062182,0.258254 0.0062182,0.0560079 0.0186766,0.0747066 0.0342221,0.0964702 0.0155455,0.0217637 0.0342442,0.0466806 0.059117,0.0715534 0.0248948,0.0248948 0.0560299,0.0497897 0.090252,0.0653352 0.0342221,0.0155675 0.0715754,0.0218078 0.183569,0.0218078 0.112016,0 0.298738,-0.00624025 0.460521,-0.00934934 0.161783,-0.0031091 0.298716,-0.0031091 0.413819,-0.0031091 0.115125,0 0.208486,0 0.267603,0 0.059117,0 0.0840118,0 0.102666,-0.0031091 0.0186766,-0.0031091 0.0311351,-0.00934934 0.0404624,-0.0497897z"/>
  <path class="fil6 str0" d="M7.73495 5.95251c0.00932729,-0.0404403 0.0155675,-0.115147 0.0155675,-0.152478 0,-0.0373312 -0.00624025,-0.0373312 -0.0280039,-0.031113 -0.0217857,0.0062182 -0.059139,0.0186987 -0.0964702,0.0249169 -0.0373312,0.0062182 -0.0746845,0.0062182 -0.146238,0.0062182 -0.0715534,0 -0.177373,0 -0.311152,0 -0.133779,0 -0.295607,0 -0.382706,-0.0062182 -0.0871209,-0.0062182 -0.0996014,-0.0186987 -0.10582,-0.0373533 -0.0062182,-0.0186546 -0.0062182,-0.0435715 -0.0062182,-0.174242 0,-0.13067 0,-0.367182 0,-0.550751 0,-0.183569 0,-0.314283 0,-0.382728 0,-0.0684443 0,-0.0746625 0.00932729,-0.0839897 0.00932729,-0.00932729 0.028026,-0.0218078 0.0466806,-0.0311351 0.0186546,-0.00932729 0.0373533,-0.0155455 0.0995793,-0.0186546 0.0622261,-0.0031091 0.168024,-0.0031091 0.304934,0 0.136911,0.0031091 0.304934,0.00932729 0.41071,0.0155455 0.105798,0.0062182 0.149369,0.0124584 0.177351,0.0186766 0.0280039,0.0062182 0.0404844,0.0124584 0.0435935,-0.0124364 0.0031091,-0.0248948 -0.00313115,-0.0809027 -0.00624025,-0.127561 -0.0031091,-0.0466806 -0.0031091,-0.0840338 -0.0062182,-0.102688 -0.0031091,-0.0186766 -0.00934934,-0.0186766 -0.23649,-0.0155675 -0.227141,0.0031091 -0.675203,0.00932729 -0.908562,0.0155455 -0.233359,0.0062182 -0.252057,0.0124584 -0.280039,0.0248948 -0.0280039,0.0124364 -0.0653572,0.0311351 -0.102688,0.0528988 -0.0373312,0.0217857 -0.0746845,0.0466806 -0.0995573,0.0684443 -0.0248948,0.0217857 -0.0373533,0.0404844 -0.0435715,0.0684663 -0.0062182,0.0280039 -0.0062182,0.0653572 -0.0062182,0.112016 0,0.0466806 0,0.102688 0,0.189809 0,0.0871209 0,0.205355 0,0.326698 0,0.121343 0,0.245839 0,0.354724 0,0.108907 0,0.202268 0.0062182,0.258254 0.0062182,0.0560079 0.0186766,0.0747066 0.0342221,0.0964702 0.0155455,0.0217637 0.0342442,0.0466806 0.059117,0.0715534 0.0248948,0.0248948 0.0560299,0.0497897 0.090252,0.0653352 0.0342221,0.0155675 0.0715754,0.0218078 0.183569,0.0218078 0.112016,0 0.298738,-0.00624025 0.460521,-0.00934934 0.161783,-0.0031091 0.298716,-0.0031091 0.413819,-0.0031091 0.115125,0 0.208486,0 0.267603,0 0.059117,0 0.0840118,0 0.102666,-0.0031091 0.0186766,-0.0031091 0.0311351,-0.00934934 0.0404624,-0.0497897z"/>
  <rect class="fil7 str0" x="4.41582" y="4.52122" width="0.877449" height="1.2695" rx="0.0746845" ry="0.0746845"/>
 </g>
</svg>
